<svg version="1.1" xmlns="http://www.w3.org/2000/svg" 
     viewBox="80 90 100 100" 
     preserveAspectRatio="xMidYMid meet">
  <style>
    path { fill: #e4e4e3; } /* Cor amarela padrão */
    @media (prefers-color-scheme: light) {
      path { fill: #313131; } /* Roxo para modo claro */
    }
  </style>
  <g transform="translate(0,280) scale(0.1,-0.1)">
    <path d="M1145 1850 c-143 -21 -267 -41 -276 -44 -38 -16 -50 -99 -25 -161 8
    -19 12 -35 8 -35 -4 0 -14 -4 -22 -10 -12 -7 -10 -13 13 -34 21 -19 27 -34 27
    -66 0 -22 -4 -40 -9 -40 -5 0 -22 -5 -38 -11 -20 -7 -24 -12 -14 -18 10 -7 11
    -13 1 -31 -17 -32 -8 -125 15 -150 10 -11 93 -44 205 -81 l187 -62 264 63
    c145 35 271 67 279 71 11 6 6 12 -22 24 -34 14 -38 19 -38 51 0 27 7 42 31 63
    19 18 26 30 19 33 -9 3 -8 13 5 38 13 26 16 49 12 97 -4 58 -3 63 15 63 30 0
    16 23 -20 34 -28 8 -32 13 -32 45 0 42 7 54 39 70 15 8 20 16 14 22 -13 13
    -332 109 -358 108 -11 -1 -137 -18 -280 -39z m-69 -136 l174 -55 0 -60 c0 -32
    -3 -59 -7 -59 -5 0 -87 22 -183 49 -149 41 -177 52 -187 72 -23 43 -14 109 14
    109 8 0 93 -25 189 -56z m636 -19 l-4 -51 -211 -52 c-117 -29 -216 -52 -220
    -52 -4 0 -7 26 -5 58 l3 57 220 46 c121 25 220 46 221 45 0 -1 -2 -24 -4 -51z
    m26 -165 c2 -26 -3 -53 -10 -63 -8 -11 -76 -35 -188 -67 -96 -27 -178 -50
    -182 -50 -5 0 -87 27 -8 59 l0 60 168 55 c92 31 178 55 192 53 22 -2 25 -7 28
    -47z m-615 -21 l207 -42 0 -59 c0 -32 -2 -58 -5 -58 -15 0 -421 104 -426 109
    -4 3 -9 28 -12 54 -4 41 -2 47 12 43 9 -3 109 -24 224 -47z m-88 -167 l180
    -58 3 -63 c2 -49 0 -62 -10 -59 -7 3 -91 27 -186 53 -186 52 -192 56 -192 121
    0 21 16 64 23 64 1 0 83 -26 182 -58z m648 -19 c-3 -27 -8 -51 -12 -54 -3 -3
    -96 -27 -206 -54 -110 -26 -206 -50 -212 -52 -10 -4 -13 11 -13 55 l0 61 58
    11 c31 6 127 26 212 45 85 18 160 34 166 34 8 1 10 -15 7 -46z"/>
  </g>
</svg>